<svg width="48" height="48" viewBox="0 0 48 48" fill="none" xmlns="http://www.w3.org/2000/svg"><g clip-path="url(#a)"><path d="M12.079 6.919a4.685 4.685 0 0 1 6.16 0 4.687 4.687 0 0 0 2.764 1.144 4.685 4.685 0 0 1 4.357 4.357c.026.386.1.765.218 1.129l-15.04 15.165a4.686 4.686 0 0 0-1.222-.25 4.685 4.685 0 0 1-4.357-4.357 4.685 4.685 0 0 0-1.144-2.762 4.685 4.685 0 0 1 0-6.162 4.687 4.687 0 0 0 1.144-2.763 4.685 4.685 0 0 1 4.357-4.357 4.685 4.685 0 0 0 2.762-1.144z" fill="url(#b)"/><path d="M11.092 5.79a6.186 6.186 0 0 1 8.134 0c.524.457 1.184.73 1.878.777a6.185 6.185 0 0 1 5.696 5.242.919.919 0 0 1-.27.78l-2.104 2.12a6.184 6.184 0 0 1-.563-2.187 3.186 3.186 0 0 0-2.962-2.962 6.186 6.186 0 0 1-3.647-1.511 3.186 3.186 0 0 0-4.19 0 6.186 6.186 0 0 1-3.647 1.51 3.186 3.186 0 0 0-2.962 2.963 6.186 6.186 0 0 1-1.51 3.647 3.187 3.187 0 0 0 0 4.19 6.185 6.185 0 0 1 1.51 3.647 3.186 3.186 0 0 0 2.962 2.962c.79.054 1.556.258 2.26.597L9.51 29.748a.653.653 0 0 1-.53.193 6.187 6.187 0 0 1-5.52-5.732 3.185 3.185 0 0 0-.777-1.878 6.187 6.187 0 0 1 0-8.135c.458-.524.73-1.183.778-1.877a6.186 6.186 0 0 1 5.752-5.752 3.186 3.186 0 0 0 1.878-.778z" fill="#DA4F00"/><path fill-rule="evenodd" clip-rule="evenodd" d="M38.531 10.53l-28 28-1.06-1.06 28-28 1.06 1.06z" fill="#70757A"/><path fill-rule="evenodd" clip-rule="evenodd" d="M40.27 39.3a.3.3 0 0 1 .14.182l.958 3.575a.3.3 0 0 0 .367.212l1.932-.517a.3.3 0 0 0 .212-.368l-.715-2.67a.3.3 0 0 1 .212-.367l2.67-.715a.3.3 0 0 0 .212-.368l-.518-1.932a.3.3 0 0 0-.367-.212l-3.575.958a.3.3 0 0 1-.228-.03l-1.49-.86a.313.313 0 0 1-.147-.332 4.643 4.643 0 0 0 .001-1.722.313.313 0 0 1 .148-.33l1.488-.86a.3.3 0 0 1 .228-.03l3.575.958a.3.3 0 0 0 .367-.212l.518-1.932a.3.3 0 0 0-.212-.367l-2.67-.716a.3.3 0 0 1-.212-.367l.715-2.67a.3.3 0 0 0-.212-.367l-1.932-.518a.3.3 0 0 0-.367.212l-.958 3.575a.3.3 0 0 1-.14.182l-1.48.855a.313.313 0 0 1-.362-.039 4.611 4.611 0 0 0-1.5-.874.313.313 0 0 1-.212-.292V28.64a.3.3 0 0 1 .088-.212l2.617-2.617a.3.3 0 0 0 0-.424l-1.414-1.415a.3.3 0 0 0-.425 0l-1.954 1.955a.3.3 0 0 1-.424 0l-1.955-1.955a.3.3 0 0 0-.424 0l-1.414 1.415a.3.3 0 0 0 0 .424l2.617 2.617a.3.3 0 0 1 .088.212v1.69c0 .133-.089.25-.215.293a4.61 4.61 0 0 0-1.52.873.313.313 0 0 1-.36.039l-1.46-.843a.3.3 0 0 1-.14-.182l-.957-3.575a.3.3 0 0 0-.368-.212l-1.932.518a.3.3 0 0 0-.212.367l.716 2.67a.3.3 0 0 1-.212.367l-2.67.716a.3.3 0 0 0-.213.367l.518 1.932a.3.3 0 0 0 .368.212l3.575-.958a.3.3 0 0 1 .227.03l1.456.84a.313.313 0 0 1 .147.332 4.636 4.636 0 0 0 .002 1.758.313.313 0 0 1-.147.332l-1.457.842a.3.3 0 0 1-.228.03l-3.575-.958a.3.3 0 0 0-.368.212l-.517 1.932a.3.3 0 0 0 .212.368l2.67.715a.3.3 0 0 1 .212.367l-.716 2.67a.3.3 0 0 0 .212.368l1.932.517a.3.3 0 0 0 .368-.212l.958-3.575a.3.3 0 0 1 .14-.182l1.466-.847a.313.313 0 0 1 .36.038c.44.378.952.675 1.513.867.126.044.215.16.215.294v1.7a.3.3 0 0 1-.088.212l-2.617 2.617a.3.3 0 0 0 0 .425l1.414 1.414a.3.3 0 0 0 .424 0l1.955-1.955a.3.3 0 0 1 .424 0l1.954 1.955a.3.3 0 0 0 .425 0l1.414-1.415a.3.3 0 0 0 0-.424l-2.617-2.617a.3.3 0 0 1-.088-.212v-1.713c0-.132.087-.248.213-.292a4.612 4.612 0 0 0 1.491-.868.313.313 0 0 1 .361-.039l1.489.86zm-4.872-6.326a2.016 2.016 0 1 0 0 4.033 2.016 2.016 0 0 0 0-4.033z" fill="#303134"/></g><defs><radialGradient id="b" cx="0" cy="0" r="1" gradientTransform="matrix(12.1719 15.4059 -11.0756 10.658 7.876 12.04)" gradientUnits="userSpaceOnUse"><stop offset=".284" stop-color="#FCC934"/><stop offset=".99" stop-color="#E47100"/></radialGradient><clipPath id="a"><path fill="#fff" d="M0 0h48v48H0z"/></clipPath></defs></svg>