<svg width="48" height="48" viewBox="0 0 48 48" fill="none" xmlns="http://www.w3.org/2000/svg"><path d="M15.334 4.239a4.872 4.872 0 0 1 6.406 0 7.873 7.873 0 0 0 4.643 1.923 4.872 4.872 0 0 1 4.53 4.53 7.873 7.873 0 0 0 1.923 4.643 4.871 4.871 0 0 1 0 6.406 7.873 7.873 0 0 0-1.923 4.642 4.872 4.872 0 0 1-4.53 4.53 7.873 7.873 0 0 0-4.643 1.923 4.871 4.871 0 0 1-6.406 0 7.873 7.873 0 0 0-4.643-1.922 4.872 4.872 0 0 1-4.53-4.53 7.873 7.873 0 0 0-1.923-4.643 4.872 4.872 0 0 1 0-6.406 7.873 7.873 0 0 0 1.923-4.643 4.872 4.872 0 0 1 4.53-4.53 7.873 7.873 0 0 0 4.643-1.923z" fill="url(#a)" stroke="#DA4F00" stroke-width="3"/><path fill-rule="evenodd" clip-rule="evenodd" d="M31.15 34.006c-.13.084-.18.25-.201.403a4.585 4.585 0 0 0 .001 1.299.538.538 0 0 1-.252.547l-1.102.636a.5.5 0 0 1-.38.05l-3.12-.836a.5.5 0 0 0-.613.353l-.44 1.642a.5.5 0 0 0 .353.613l2.075.556a.5.5 0 0 1 .353.612l-.556 2.075a.5.5 0 0 0 .354.612l1.642.44a.5.5 0 0 0 .613-.354l.836-3.12a.5.5 0 0 1 .233-.304l1.112-.642c.189-.11.425-.081.598.053.336.263.71.48 1.114.64a.538.538 0 0 1 .349.492v1.288a.5.5 0 0 1-.147.354L31.687 43.7a.5.5 0 0 0 0 .707l1.202 1.202a.5.5 0 0 0 .707 0l1.52-1.519a.5.5 0 0 1 .706 0l1.519 1.52a.5.5 0 0 0 .707 0l1.202-1.203a.5.5 0 0 0 0-.707l-2.285-2.285a.5.5 0 0 1-.146-.353V39.76c0-.219.143-.41.345-.491a4.549 4.549 0 0 0 1.096-.638.538.538 0 0 1 .6-.055l1.132.654a.5.5 0 0 1 .233.303l.836 3.121a.5.5 0 0 0 .612.354l1.642-.44a.5.5 0 0 0 .354-.612l-.556-2.075a.5.5 0 0 1 .354-.612l2.074-.556a.5.5 0 0 0 .354-.613l-.44-1.642a.5.5 0 0 0-.613-.353l-3.12.836a.5.5 0 0 1-.38-.05l-1.135-.655a.538.538 0 0 1-.252-.545 4.586 4.586 0 0 0 .001-1.265.538.538 0 0 1 .253-.544l1.133-.654a.5.5 0 0 1 .379-.05l3.121.836a.5.5 0 0 0 .613-.354l.44-1.642a.5.5 0 0 0-.354-.612l-2.074-.556a.5.5 0 0 1-.354-.612l.556-2.075a.5.5 0 0 0-.354-.612l-1.642-.44a.5.5 0 0 0-.612.354l-.836 3.12a.5.5 0 0 1-.233.304l-1.124.65a.538.538 0 0 1-.6-.056 4.545 4.545 0 0 0-1.104-.643.538.538 0 0 1-.345-.491v-1.291a.5.5 0 0 1 .146-.354l2.285-2.285a.5.5 0 0 0 0-.707l-1.202-1.202a.5.5 0 0 0-.707 0l-1.519 1.518c-.113.114-.247.23-.264.389a2.961 2.961 0 0 0-.01.103 9.705 9.705 0 0 1-4.398 7.486zm2.453 1.048a1.848 1.848 0 1 1 3.696 0 1.848 1.848 0 0 1-3.696 0z" fill="#303134"/><defs><radialGradient id="a" cx="0" cy="0" r="1" gradientTransform="matrix(18.0578 22.8236 -16.4313 15.7896 9.276 10.836)" gradientUnits="userSpaceOnUse"><stop offset=".284" stop-color="#FCC934"/><stop offset=".99" stop-color="#E47100"/></radialGradient></defs></svg>