<svg width="48" height="48" viewBox="0 0 48 48" fill="none" xmlns="http://www.w3.org/2000/svg"><path d="M12.825 6.742a4.685 4.685 0 0 1 6.162 0 4.687 4.687 0 0 0 2.763 1.145 4.685 4.685 0 0 1 4.357 4.356c.026.386.1.765.218 1.129l-15.04 15.165a4.679 4.679 0 0 0-1.222-.25 4.685 4.685 0 0 1-4.357-4.357 4.685 4.685 0 0 0-1.144-2.762 4.685 4.685 0 0 1 0-6.161 4.687 4.687 0 0 0 1.144-2.764 4.685 4.685 0 0 1 4.357-4.356 4.685 4.685 0 0 0 2.762-1.145z" fill="url(#a)"/><path d="M11.839 5.612a6.187 6.187 0 0 1 8.134 0c.524.458 1.184.73 1.878.778a6.185 6.185 0 0 1 5.696 5.242.919.919 0 0 1-.27.78l-2.104 2.12a6.184 6.184 0 0 1-.563-2.187 3.186 3.186 0 0 0-2.962-2.962 6.186 6.186 0 0 1-3.647-1.51 3.186 3.186 0 0 0-4.19 0 6.186 6.186 0 0 1-3.647 1.51 3.186 3.186 0 0 0-2.962 2.962 6.185 6.185 0 0 1-1.51 3.647 3.187 3.187 0 0 0 0 4.19 6.185 6.185 0 0 1 1.51 3.647 3.186 3.186 0 0 0 2.962 2.962c.79.054 1.556.258 2.26.597l-2.166 2.183a.653.653 0 0 1-.53.193 6.187 6.187 0 0 1-5.52-5.732 3.185 3.185 0 0 0-.777-1.878 6.187 6.187 0 0 1 0-8.134c.458-.524.73-1.184.778-1.878A6.186 6.186 0 0 1 9.96 6.39a3.186 3.186 0 0 0 1.878-.778z" fill="#DA4F00"/><path d="M45.265 35.267c-.09 2.755-1.564 5.165-3.753 6.648a9.19 9.19 0 0 1-3.24 1.375c-1.965.242-3.91.208-5.892.208h-5.665c-3.318 0-6.112-2.465-6.284-5.662l-.008-.312c0-3.346 2.867-5.974 6.292-5.974.45 0 .89.046 1.315.131 1.372-3.064 4.577-5.18 8.265-5.181l.23.003c4.803.115 8.744 3.829 8.744 8.496l-.004.268z" fill="url(#b)" fill-opacity=".35" stroke="#70757A" stroke-width="3"/><path fill-rule="evenodd" clip-rule="evenodd" d="M38.3 10.528l-27.768 28-1.065-1.056 27.767-28 1.066 1.056z" fill="#70757A"/><defs><radialGradient id="a" cx="0" cy="0" r="1" gradientTransform="matrix(12.1719 15.4059 -11.0756 10.658 8.623 11.863)" gradientUnits="userSpaceOnUse"><stop offset=".284" stop-color="#FCC934"/><stop offset=".99" stop-color="#E47100"/></radialGradient><linearGradient id="b" x1="30.914" y1="28.893" x2="35.649" y2="42.809" gradientUnits="userSpaceOnUse"><stop offset=".375" stop-color="#ABABAB" stop-opacity="0"/><stop offset=".928" stop-color="#70757A"/></linearGradient></defs></svg>