<svg width="48" height="48" viewBox="0 0 48 48" fill="none" xmlns="http://www.w3.org/2000/svg"><path d="M37.013 24.286a.134.134 0 0 1 .189 0l6.41 6.31.058.057a9.034 9.034 0 0 1 0 12.92c-3.624 3.566-9.5 3.566-13.125 0a9.032 9.032 0 0 1-2.507-8.393 9.37 9.37 0 0 0 7.346-8.518 3.37 3.37 0 0 1 .225-.995l1.404-1.38z" fill="url(#a)"/><path d="M15.316 4.212a4.872 4.872 0 0 1 6.407 0 7.872 7.872 0 0 0 4.642 1.923 4.872 4.872 0 0 1 4.53 4.53 7.872 7.872 0 0 0 1.923 4.643 4.872 4.872 0 0 1 0 6.406 7.872 7.872 0 0 0-1.922 4.643 4.872 4.872 0 0 1-4.53 4.53 7.872 7.872 0 0 0-4.643 1.923 4.872 4.872 0 0 1-6.407 0 7.872 7.872 0 0 0-4.642-1.923 4.872 4.872 0 0 1-4.53-4.53 7.872 7.872 0 0 0-1.923-4.643 4.872 4.872 0 0 1 0-6.406 7.872 7.872 0 0 0 1.923-4.643 4.872 4.872 0 0 1 4.53-4.53 7.872 7.872 0 0 0 4.642-1.923z" fill="url(#b)" stroke="#DA4F00" stroke-width="3"/><defs><linearGradient id="a" x1="30.668" y1="28.504" x2="38.609" y2="38.07" gradientUnits="userSpaceOnUse"><stop stop-color="#3271EA"/><stop offset="1" stop-color="#0B57D0"/></linearGradient><radialGradient id="b" cx="0" cy="0" r="1" gradientTransform="matrix(18.0578 22.8236 -16.4313 15.7896 9.259 10.81)" gradientUnits="userSpaceOnUse"><stop offset=".284" stop-color="#FCC934"/><stop offset=".99" stop-color="#E47100"/></radialGradient></defs></svg>