<svg width="48" height="48" viewBox="0 0 48 48" fill="none" xmlns="http://www.w3.org/2000/svg"><path d="M33.232 26.51c5.087.12 9.26 4.054 9.26 8.996l-.004.284a8.622 8.622 0 0 1-.032.5c1.276.811 2.114 2.173 2.114 3.717 0 2.486-2.17 4.5-4.847 4.5h-14.54v-.001h-2.337c-3.514 0-6.473-2.611-6.654-5.996l-.009-.33c0-3.544 3.036-6.326 6.663-6.326.476 0 .943.048 1.392.14 1.453-3.246 4.847-5.488 8.752-5.488l.242.003z" fill="url(#a)" fill-opacity=".35"/><path d="M35.759 25.347c4.658 1.16 8.233 5.176 8.233 10.16v.063c1.256 1.082 2.077 2.654 2.077 4.437 0 3.417-2.948 6-6.346 6h-16.04v-.002h-.838c-4.231 0-7.923-3.157-8.152-7.415v-.04l-.01-.33v-.04c0-.162.006-.322.016-.481a9.36 9.36 0 0 0 2.994.78l.015.185c.256 2.404 2.43 4.341 5.138 4.341h3.838v.002h13.039c1.955 0 3.346-1.445 3.346-3 0-.977-.528-1.885-1.418-2.45l-.772-.491.083-.911c.013-.142.022-.28.026-.414l.004-.235c0-3.42-2.458-6.344-5.855-7.227.128-.522.216-1.06.254-1.613a3.37 3.37 0 0 1 .368-1.319z" fill="#70757A"/><path d="M15.322 4.217a4.872 4.872 0 0 1 6.407 0A7.873 7.873 0 0 0 26.37 6.14a4.872 4.872 0 0 1 4.53 4.53 7.873 7.873 0 0 0 1.923 4.643 4.871 4.871 0 0 1 0 6.406 7.873 7.873 0 0 0-1.923 4.643 4.872 4.872 0 0 1-4.53 4.53 7.873 7.873 0 0 0-4.642 1.923 4.871 4.871 0 0 1-6.407 0 7.873 7.873 0 0 0-4.642-1.923 4.872 4.872 0 0 1-4.53-4.53 7.873 7.873 0 0 0-1.923-4.643 4.872 4.872 0 0 1 0-6.406 7.873 7.873 0 0 0 1.922-4.643 4.872 4.872 0 0 1 4.53-4.53 7.873 7.873 0 0 0 4.643-1.923z" fill="url(#b)" stroke="#DA4F00" stroke-width="3"/><defs><linearGradient id="a" x1="28.169" y1="29.041" x2="32.885" y2="43.995" gradientUnits="userSpaceOnUse"><stop offset=".375" stop-color="#ABABAB" stop-opacity="0"/><stop offset=".928" stop-color="#70757A"/></linearGradient><radialGradient id="b" cx="0" cy="0" r="1" gradientTransform="matrix(18.0578 22.8236 -16.4313 15.7896 9.264 10.815)" gradientUnits="userSpaceOnUse"><stop offset=".284" stop-color="#FCC934"/><stop offset=".99" stop-color="#E47100"/></radialGradient></defs></svg>