<svg width="48" height="48" viewBox="0 0 48 48" fill="none" xmlns="http://www.w3.org/2000/svg"><path d="M12.467 6.919a4.685 4.685 0 0 1 6.161 0 4.687 4.687 0 0 0 2.764 1.144 4.685 4.685 0 0 1 4.356 4.357c.027.386.1.765.218 1.129l-15.04 15.165a4.687 4.687 0 0 0-1.222-.25 4.685 4.685 0 0 1-4.356-4.357 4.685 4.685 0 0 0-1.145-2.762 4.685 4.685 0 0 1 0-6.162 4.687 4.687 0 0 0 1.145-2.763 4.685 4.685 0 0 1 4.356-4.357 4.685 4.685 0 0 0 2.763-1.144z" fill="url(#a)"/><path d="M11.48 5.79a6.187 6.187 0 0 1 8.135 0c.524.457 1.184.73 1.878.777a6.185 6.185 0 0 1 5.695 5.242.918.918 0 0 1-.27.78l-2.104 2.12a6.184 6.184 0 0 1-.562-2.187A3.186 3.186 0 0 0 21.29 9.56a6.186 6.186 0 0 1-3.648-1.511 3.186 3.186 0 0 0-4.19 0 6.186 6.186 0 0 1-3.647 1.51 3.186 3.186 0 0 0-2.962 2.963 6.186 6.186 0 0 1-1.51 3.647 3.187 3.187 0 0 0 0 4.19 6.185 6.185 0 0 1 1.51 3.647 3.186 3.186 0 0 0 2.962 2.962c.79.054 1.556.258 2.26.597L9.9 29.748a.653.653 0 0 1-.53.193 6.187 6.187 0 0 1-5.52-5.732 3.185 3.185 0 0 0-.777-1.878 6.187 6.187 0 0 1 0-8.135c.457-.524.73-1.183.777-1.877a6.186 6.186 0 0 1 5.752-5.752 3.186 3.186 0 0 0 1.878-.778z" fill="#DA4F00"/><path d="M36.395 21.041a.14.14 0 0 0-.197 0l-6.763 6.656a9.445 9.445 0 0 0 0 13.506c3.79 3.73 9.934 3.73 13.723 0a9.444 9.444 0 0 0-.06-13.565l-6.703-6.597z" fill="url(#b)"/><path fill-rule="evenodd" clip-rule="evenodd" d="M38.53 10.53l-28 28-1.061-1.06 28-28 1.06 1.06z" fill="#70757A"/><defs><radialGradient id="a" cx="0" cy="0" r="1" gradientTransform="matrix(12.1719 15.4059 -11.0756 10.658 8.265 12.04)" gradientUnits="userSpaceOnUse"><stop offset=".284" stop-color="#FCC934"/><stop offset=".99" stop-color="#E47100"/></radialGradient><linearGradient id="b" x1="29.563" y1="25.451" x2="37.864" y2="35.452" gradientUnits="userSpaceOnUse"><stop stop-color="#3271EA"/><stop offset="1" stop-color="#0B57D0"/></linearGradient></defs></svg>