<svg width="48" height="48" viewBox="0 0 48 48" fill="none" xmlns="http://www.w3.org/2000/svg"><path fill-rule="evenodd" clip-rule="evenodd" d="M34.903 28.919c.025-.014.05.019.03.039a.5.5 0 0 0-.147.353v1.291c0 .219.143.41.345.491.4.163.77.38 1.103.643.172.136.41.165.6.056l1.125-.65a.5.5 0 0 0 .233-.303l.836-3.12a.5.5 0 0 1 .612-.354l1.642.44a.5.5 0 0 1 .354.612l-.556 2.074a.5.5 0 0 0 .354.613l2.074.555a.5.5 0 0 1 .353.613l-.44 1.642a.5.5 0 0 1-.612.353l-3.121-.836a.5.5 0 0 0-.38.05l-1.132.654a.538.538 0 0 0-.253.544 4.59 4.59 0 0 1 0 1.265.538.538 0 0 0 .252.546l1.134.654a.5.5 0 0 0 .38.05l3.12-.836a.5.5 0 0 1 .612.354l.44 1.642a.5.5 0 0 1-.353.612l-2.074.556a.5.5 0 0 0-.354.612l.556 2.074a.5.5 0 0 1-.354.613l-1.642.44a.5.5 0 0 1-.612-.354l-.836-3.12a.5.5 0 0 0-.233-.304l-1.132-.654a.538.538 0 0 0-.6.055c-.33.26-.7.477-1.096.638a.538.538 0 0 0-.345.49v1.302a.5.5 0 0 0 .147.353l2.284 2.285a.5.5 0 0 1 0 .707l-1.202 1.202a.5.5 0 0 1-.707 0l-1.518-1.518a.5.5 0 0 0-.707 0l-1.519 1.518a.5.5 0 0 1-.707 0l-1.202-1.202a.5.5 0 0 1 0-.707l2.285-2.285a.5.5 0 0 0 .146-.353v-1.287a.538.538 0 0 0-.349-.493 4.546 4.546 0 0 1-1.114-.64.538.538 0 0 0-.598-.053l-1.111.642a.5.5 0 0 0-.233.303l-.836 3.12a.5.5 0 0 1-.612.354l-1.643-.44a.5.5 0 0 1-.353-.612l.556-2.074a.5.5 0 0 0-.354-.613l-2.074-.555a.5.5 0 0 1-.354-.613l.44-1.642a.5.5 0 0 1 .613-.353l3.12.836a.5.5 0 0 0 .38-.05l1.102-.636c.19-.11.283-.33.252-.547a4.584 4.584 0 0 1-.001-1.299.538.538 0 0 0-.253-.546l-1.1-.635a.5.5 0 0 0-.38-.05l-3.12.836a.5.5 0 0 1-.613-.353l-.44-1.642a.5.5 0 0 1 .354-.613l2.074-.556c.203-.054.395-.183.605-.183h1.48l.234-.014c.18-.008.358-.018.536-.03.225-.017.425.154.62.267l1.104.637c.19.11.427.08.599-.054a4.545 4.545 0 0 1 1.12-.645.538.538 0 0 0 .35-.492v-.298c0-.09.058-.171.144-.2a15.928 15.928 0 0 0 2.672-1.172zm-3.332 6.389a1.847 1.847 0 1 1 3.695 0 1.847 1.847 0 0 1-3.695 0z" fill="#303134"/><path d="M27.07 3.997v.001c6.62.159 11.91 5.257 11.91 11.495l-.006.378c-.126 3.684-2.098 6.937-5.08 8.957a12.553 12.553 0 0 1-4.373 1.864c-2.867.347-5.707.3-8.754.3h-8.663c-4.221-.001-7.676-3.026-8.083-6.867l-.03-.374-.01-.396c0-4.203 3.623-7.637 8.123-7.637.588 0 1.161.059 1.714.17l1.176.239.49-1.096c1.848-4.127 6.199-7.034 11.264-7.037l.323.003z" fill="url(#a)" fill-opacity=".35" stroke="#70757A" stroke-width="3"/><defs><linearGradient id="a" x1="18.526" y1="6.155" x2="25.767" y2="27.437" gradientUnits="userSpaceOnUse"><stop offset=".375" stop-color="#ABABAB" stop-opacity="0"/><stop offset=".928" stop-color="#70757A"/></linearGradient></defs></svg>