<svg width="48" height="48" viewBox="0 0 48 48" fill="none" xmlns="http://www.w3.org/2000/svg"><g clip-path="url(#a)"><path fill-rule="evenodd" clip-rule="evenodd" d="M38.432 10.53l-28 28-1.06-1.06 28-28 1.06 1.06z" fill="#70757A"/><path fill-rule="evenodd" clip-rule="evenodd" d="M39.805 39.147a.3.3 0 0 1 .14.182l.958 3.575a.3.3 0 0 0 .367.212l1.932-.518a.3.3 0 0 0 .212-.367l-.715-2.67a.3.3 0 0 1 .212-.367l2.67-.716a.3.3 0 0 0 .212-.367l-.518-1.932a.3.3 0 0 0-.367-.212l-3.575.958a.3.3 0 0 1-.228-.03l-1.49-.86a.313.313 0 0 1-.147-.332 4.641 4.641 0 0 0 .001-1.722.313.313 0 0 1 .148-.33l1.488-.86a.3.3 0 0 1 .228-.03l3.575.958a.3.3 0 0 0 .367-.212l.518-1.932a.3.3 0 0 0-.212-.368l-2.67-.715a.3.3 0 0 1-.212-.367l.715-2.67a.3.3 0 0 0-.212-.368l-1.932-.517a.3.3 0 0 0-.367.212l-.958 3.575a.3.3 0 0 1-.14.182l-1.48.855a.313.313 0 0 1-.362-.04 4.61 4.61 0 0 0-1.5-.873.313.313 0 0 1-.212-.293v-1.701a.3.3 0 0 1 .088-.212l2.617-2.617a.3.3 0 0 0 0-.425l-1.414-1.414a.3.3 0 0 0-.425 0l-1.954 1.955a.3.3 0 0 1-.424 0l-1.955-1.955a.3.3 0 0 0-.424 0l-1.414 1.414a.3.3 0 0 0 0 .425l2.617 2.617a.3.3 0 0 1 .088.212v1.689c0 .133-.089.25-.215.293a4.612 4.612 0 0 0-1.52.874.313.313 0 0 1-.36.038l-1.46-.842a.3.3 0 0 1-.14-.182L29 26.782a.3.3 0 0 0-.368-.212l-1.931.517a.3.3 0 0 0-.213.368l.716 2.67a.3.3 0 0 1-.212.367l-2.67.715a.3.3 0 0 0-.212.368l.517 1.932a.3.3 0 0 0 .368.212l3.575-.958a.3.3 0 0 1 .228.03l1.455.84a.313.313 0 0 1 .147.332 4.643 4.643 0 0 0 .002 1.758.313.313 0 0 1-.147.332l-1.457.842a.3.3 0 0 1-.228.03l-3.575-.958a.3.3 0 0 0-.368.212l-.517 1.932a.3.3 0 0 0 .212.367l2.67.716a.3.3 0 0 1 .212.367l-.716 2.67a.3.3 0 0 0 .213.367l1.931.518a.3.3 0 0 0 .368-.212l.958-3.575a.3.3 0 0 1 .14-.182l1.466-.847a.313.313 0 0 1 .36.038c.44.378.952.675 1.512.867.127.043.216.16.216.294v1.7a.3.3 0 0 1-.088.212l-2.617 2.617a.3.3 0 0 0 0 .424l1.414 1.414a.3.3 0 0 0 .424 0l1.955-1.954a.3.3 0 0 1 .424 0l1.954 1.954a.3.3 0 0 0 .425 0l1.414-1.414a.3.3 0 0 0 0-.424l-2.617-2.617a.3.3 0 0 1-.088-.212v-1.713c0-.133.087-.249.213-.293a4.612 4.612 0 0 0 1.492-.867.313.313 0 0 1 .36-.039l1.49.86zm-4.872-6.326a2.016 2.016 0 1 0 0 4.032 2.016 2.016 0 0 0 0-4.032z" fill="#303134"/><path d="M28.931 14.51c-.09 2.755-1.564 5.165-3.752 6.648a9.189 9.189 0 0 1-3.24 1.375c-1.966.242-3.91.209-5.893.208h-5.664c-3.318 0-6.113-2.465-6.284-5.662l-.008-.312c0-3.346 2.866-5.973 6.292-5.973.45 0 .89.045 1.315.13 1.372-3.064 4.577-5.18 8.265-5.18l.229.002c4.803.115 8.745 3.83 8.745 8.497l-.005.267z" fill="url(#b)" fill-opacity=".35"/><path d="M20.209 4.246h.017c4.147.1 7.813 2.542 9.388 6.105a.485.485 0 0 1-.105.538l-1.506 1.506c-.285.285-.785.133-.913-.25-.927-2.763-3.636-4.814-6.917-4.9l-.22-.002c-3.112.003-5.766 1.79-6.887 4.294l-.49 1.096-1.177-.238a5.131 5.131 0 0 0-1.018-.102c-2.686 0-4.792 2.044-4.792 4.475l.007.246c.133 2.317 2.19 4.227 4.785 4.227h5.665c.643 0 1.266.003 1.877-.001.452-.003.687.549.367.868l-1.987 1.987a.5.5 0 0 1-.353.146H10.38c-4.035 0-7.563-3.012-7.78-7.082l-.002-.02v-.02l-.009-.311v-.04c0-4.263 3.628-7.475 7.791-7.475l.412.01.055.005c1.821-3.064 5.26-5.065 9.113-5.065h.018l.23.003z" fill="#70757A"/></g><defs><linearGradient id="b" x1="14.581" y1="8.137" x2="19.315" y2="22.052" gradientUnits="userSpaceOnUse"><stop offset=".072" stop-color="#70757A"/><stop offset=".625" stop-color="#ABABAB" stop-opacity="0"/></linearGradient><clipPath id="a"><path fill="#fff" d="M0 0h48v48H0z"/></clipPath></defs></svg>