<svg width="48" height="48" viewBox="0 0 48 48" fill="none" xmlns="http://www.w3.org/2000/svg"><path fill-rule="evenodd" clip-rule="evenodd" d="M38.53 10.53l-28 28-1.061-1.06 28-28 1.06 1.06z" fill="#70757A"/><path d="M36.395 21.04a.14.14 0 0 0-.197 0l-6.763 6.657a9.445 9.445 0 0 0 0 13.506c3.79 3.73 9.934 3.73 13.723 0a9.444 9.444 0 0 0-.06-13.565l-6.703-6.597z" fill="url(#a)"/><path d="M28.32 14.51c-.09 2.755-1.564 5.165-3.753 6.648a9.19 9.19 0 0 1-3.24 1.375c-1.965.242-3.91.209-5.892.208H9.77c-3.318 0-6.112-2.465-6.283-5.662l-.009-.312c0-3.346 2.867-5.973 6.292-5.973.45 0 .89.045 1.316.13 1.371-3.064 4.576-5.18 8.264-5.18l.23.002c4.803.115 8.745 3.83 8.745 8.497l-.005.267z" fill="url(#b)" fill-opacity=".35"/><path d="M19.597 4.246h.018c4.147.1 7.813 2.542 9.388 6.105a.485.485 0 0 1-.105.538l-1.506 1.506c-.285.285-.785.133-.913-.25-.927-2.763-3.637-4.814-6.917-4.9l-.22-.002c-3.112.003-5.766 1.79-6.887 4.294l-.49 1.096-1.177-.238a5.131 5.131 0 0 0-1.018-.102c-2.687 0-4.792 2.044-4.792 4.475l.007.246c.132 2.317 2.19 4.227 4.785 4.227h5.665c.642 0 1.266.003 1.876-.001.452-.003.687.549.367.868l-1.986 1.987a.5.5 0 0 1-.354.146H9.77c-4.036 0-7.563-3.012-7.781-7.082l-.001-.02-.001-.02-.008-.311-.001-.02v-.02c0-4.263 3.629-7.475 7.792-7.475l.411.01.056.005c1.821-3.064 5.26-5.065 9.113-5.065h.018l.23.003z" fill="#70757A"/><defs><linearGradient id="a" x1="29.563" y1="25.45" x2="37.864" y2="35.452" gradientUnits="userSpaceOnUse"><stop stop-color="#3271EA"/><stop offset="1" stop-color="#0B57D0"/></linearGradient><linearGradient id="b" x1="13.969" y1="8.137" x2="18.704" y2="22.052" gradientUnits="userSpaceOnUse"><stop offset=".072" stop-color="#70757A"/><stop offset=".625" stop-color="#ABABAB" stop-opacity="0"/></linearGradient></defs></svg>