<svg width="48" height="48" viewBox="0 0 48 48" fill="none" xmlns="http://www.w3.org/2000/svg"><path d="M26.46 3.997v.001c6.62.159 11.91 5.257 11.91 11.495l-.008.378c-.126 3.684-2.098 6.937-5.08 8.957a12.552 12.552 0 0 1-4.373 1.864c-2.866.347-5.707.3-8.753.3h-8.664c-4.22-.001-7.675-3.026-8.083-6.867l-.029-.374-.01-.396c0-4.203 3.622-7.637 8.122-7.637.589 0 1.162.059 1.714.17l1.177.239.49-1.096c1.848-4.127 6.198-7.034 11.264-7.037l.322.003z" fill="url(#a)" fill-opacity=".35" stroke="#70757A" stroke-width="3"/><path d="M43.613 30.1l.058.055a9.034 9.034 0 0 1 0 12.919c-3.624 3.567-9.501 3.567-13.126 0a9.03 9.03 0 0 1-.86-11.944l.108-.022a17.056 17.056 0 0 0 6.013-2.554 16.524 16.524 0 0 0 3.27-2.92l4.537 4.465z" fill="url(#b)"/><defs><linearGradient id="a" x1="17.914" y1="6.155" x2="25.156" y2="27.437" gradientUnits="userSpaceOnUse"><stop offset=".375" stop-color="#ABABAB" stop-opacity="0"/><stop offset=".928" stop-color="#70757A"/></linearGradient><linearGradient id="b" x1="30.667" y1="29.526" x2="37.781" y2="38.9" gradientUnits="userSpaceOnUse"><stop stop-color="#3271EA"/><stop offset="1" stop-color="#0B57D0"/></linearGradient></defs></svg>