<svg width="48" height="48" viewBox="0 0 48 48" fill="none" xmlns="http://www.w3.org/2000/svg"><path d="M28.709 14.51c-.09 2.755-1.564 5.165-3.753 6.648a9.188 9.188 0 0 1-3.24 1.375c-1.966.242-3.91.209-5.893.208H10.16c-3.318 0-6.112-2.465-6.284-5.662l-.008-.312c0-3.346 2.867-5.973 6.292-5.973.45 0 .89.045 1.315.13 1.372-3.064 4.577-5.18 8.265-5.18l.23.002c4.803.115 8.744 3.83 8.744 8.497l-.004.267z" fill="url(#a)" fill-opacity=".35"/><path d="M19.986 4.246h.017c4.147.1 7.813 2.542 9.389 6.105a.485.485 0 0 1-.105.538l-1.507 1.506c-.285.285-.784.133-.913-.25-.927-2.763-3.636-4.814-6.916-4.9l-.22-.002c-3.113.003-5.767 1.79-6.888 4.294l-.49 1.096-1.177-.238a5.131 5.131 0 0 0-1.017-.102c-2.687 0-4.792 2.044-4.792 4.475l.006.246c.133 2.317 2.191 4.227 4.786 4.227h5.665c.642 0 1.265.003 1.876-.001.452-.003.687.549.367.868l-1.986 1.987a.5.5 0 0 1-.354.146h-5.568c-4.036 0-7.563-3.012-7.782-7.082v-.02l-.002-.02-.007-.311-.001-.02v-.02c0-4.263 3.628-7.475 7.792-7.475l.41.01.056.005c1.822-3.064 5.261-5.065 9.114-5.065h.017l.23.003z" fill="#70757A"/><path fill-rule="evenodd" clip-rule="evenodd" d="M38.53 10.53l-28 28-1.061-1.06 28-28 1.06 1.06z" fill="#70757A"/><path d="M34.645 40.91a4.685 4.685 0 0 1-6.16 0 4.687 4.687 0 0 0-2.764-1.144 4.685 4.685 0 0 1-4.357-4.356 4.69 4.69 0 0 0-.218-1.13l15.04-15.164c.392.136.803.221 1.222.25a4.685 4.685 0 0 1 4.357 4.356 4.685 4.685 0 0 0 1.144 2.763 4.685 4.685 0 0 1 0 6.161 4.687 4.687 0 0 0-1.144 2.764 4.685 4.685 0 0 1-4.357 4.356 4.685 4.685 0 0 0-2.763 1.145z" fill="url(#b)"/><path d="M35.632 42.04a6.187 6.187 0 0 1-8.134 0 3.186 3.186 0 0 0-1.878-.777 6.185 6.185 0 0 1-5.696-5.243.919.919 0 0 1 .27-.779l2.104-2.12c.318.684.511 1.424.563 2.187a3.186 3.186 0 0 0 2.962 2.962 6.186 6.186 0 0 1 3.647 1.51 3.186 3.186 0 0 0 4.19 0 6.187 6.187 0 0 1 3.647-1.51 3.186 3.186 0 0 0 2.962-2.962 6.185 6.185 0 0 1 1.51-3.648 3.187 3.187 0 0 0 0-4.189 6.185 6.185 0 0 1-1.51-3.647 3.186 3.186 0 0 0-2.962-2.962 6.187 6.187 0 0 1-2.26-.597l2.166-2.183a.653.653 0 0 1 .53-.193 6.187 6.187 0 0 1 5.52 5.732c.046.694.32 1.353.777 1.877a6.187 6.187 0 0 1 0 8.135 3.186 3.186 0 0 0-.778 1.878 6.186 6.186 0 0 1-5.752 5.752 3.186 3.186 0 0 0-1.878.777z" fill="#DA4F00"/><defs><linearGradient id="a" x1="14.358" y1="8.137" x2="19.093" y2="22.052" gradientUnits="userSpaceOnUse"><stop offset=".072" stop-color="#70757A"/><stop offset=".625" stop-color="#ABABAB" stop-opacity="0"/></linearGradient><radialGradient id="b" cx="0" cy="0" r="1" gradientTransform="matrix(-12.1719 -15.4059 11.0756 -10.658 38.848 35.79)" gradientUnits="userSpaceOnUse"><stop offset=".284" stop-color="#FCC934"/><stop offset=".99" stop-color="#E47100"/></radialGradient></defs></svg>