<svg width="48" height="48" viewBox="0 0 48 48" fill="none" xmlns="http://www.w3.org/2000/svg"><path d="M26.59 3.503C33.21 3.664 38.5 8.762 38.5 15l-.007.378c-.126 3.684-2.098 6.937-5.08 8.957a12.552 12.552 0 0 1-4.373 1.864c-2.867.347-5.707.3-8.754.3h-8.663c-4.22-.001-7.676-3.027-8.083-6.867l-.03-.374-.01-.397c0-4.202 3.623-7.636 8.123-7.636.588 0 1.162.059 1.714.17l1.177.239.49-1.096C16.852 6.41 21.202 3.503 26.268 3.5l.322.003z" fill="url(#a)" fill-opacity=".35" stroke="#70757A" stroke-width="3"/><path d="M39.084 25.446a3.936 3.936 0 0 1 3.66 3.66c.059.857.396 1.673.961 2.32a3.936 3.936 0 0 1 0 5.177 3.935 3.935 0 0 0-.96 2.32 3.936 3.936 0 0 1-3.66 3.66 3.935 3.935 0 0 0-2.321.96 3.936 3.936 0 0 1-5.176 0 3.937 3.937 0 0 0-2.321-.96 3.936 3.936 0 0 1-3.66-3.66 3.936 3.936 0 0 0-.961-2.32 3.936 3.936 0 0 1 0-5.176c.125-.144.236-.297.339-.455 1.535-.037 3.104-.121 4.68-.316l.13-.015.13-.028a17.057 17.057 0 0 0 6.012-2.553 16.54 16.54 0 0 0 3.016-2.628c.043.004.087.011.131.014z" fill="url(#b)"/><path d="M40.043 24.078a5.435 5.435 0 0 1 4.197 4.926c.036.53.245 1.036.595 1.436a5.436 5.436 0 0 1 0 7.149c-.35.4-.56.906-.595 1.436a5.435 5.435 0 0 1-5.054 5.054 2.438 2.438 0 0 0-1.437.596 5.436 5.436 0 0 1-7.148 0c-.401-.35-.906-.56-1.437-.596a5.435 5.435 0 0 1-5.053-5.054 2.437 2.437 0 0 0-.596-1.436 5.437 5.437 0 0 1-.426-6.592 75.527 75.527 0 0 0 3.618-.092 5.436 5.436 0 0 1-.931 1.508c-.8.918-.8 2.286 0 3.203a5.436 5.436 0 0 1 1.328 3.205 2.436 2.436 0 0 0 2.265 2.265c1.184.08 2.31.547 3.205 1.328.917.8 2.285.8 3.203 0a5.437 5.437 0 0 1 3.205-1.328 2.435 2.435 0 0 0 2.264-2.265 5.437 5.437 0 0 1 1.328-3.205c.801-.917.801-2.285 0-3.203a5.438 5.438 0 0 1-1.328-3.205 2.435 2.435 0 0 0-2.264-2.265 5.431 5.431 0 0 1-1.297-.25 16.326 16.326 0 0 0 2.358-2.615z" fill="#DA4F00"/><defs><linearGradient id="a" x1="18.045" y1="5.661" x2="25.286" y2="26.943" gradientUnits="userSpaceOnUse"><stop offset=".375" stop-color="#ABABAB" stop-opacity="0"/><stop offset=".928" stop-color="#70757A"/></linearGradient><radialGradient id="b" cx="0" cy="0" r="1" gradientTransform="matrix(11.1535 12.8099 -10.1489 8.86198 28.456 30.65)" gradientUnits="userSpaceOnUse"><stop offset=".284" stop-color="#FCC934"/><stop offset=".99" stop-color="#E47100"/></radialGradient></defs></svg>