<svg width="48" height="48" viewBox="0 0 48 48" fill="none" xmlns="http://www.w3.org/2000/svg"><path fill-rule="evenodd" clip-rule="evenodd" d="M38.53 10.53l-28 28-1.061-1.06 28-28 1.06 1.06z" fill="#70757A"/><path d="M6.928 10.834L14 4l7.01 6.775.062.06a9.593 9.593 0 0 1 2.335 3.545c.442 1.182-.029 2.465-.921 3.357l-8.199 8.198c-.85.85-2.053 1.318-3.207.979a10.029 10.029 0 0 1-4.15-2.411c-3.905-3.775-3.906-9.895 0-13.669z" fill="url(#a)"/><path d="M45.265 35.267c-.09 2.755-1.564 5.165-3.753 6.648a9.19 9.19 0 0 1-3.24 1.375c-1.966.242-3.91.208-5.892.208h-5.665c-3.318 0-6.112-2.465-6.284-5.662l-.008-.312c0-3.346 2.867-5.974 6.292-5.974.45 0 .89.046 1.315.131 1.372-3.064 4.577-5.18 8.265-5.181l.23.003c4.803.115 8.744 3.829 8.744 8.496l-.004.268z" fill="url(#b)" fill-opacity=".35" stroke="#70757A" stroke-width="3"/><defs><linearGradient id="a" x1="7.045" y1="8.504" x2="15.426" y2="18.736" gradientUnits="userSpaceOnUse"><stop stop-color="#3271EA"/><stop offset="1" stop-color="#0B57D0"/></linearGradient><linearGradient id="b" x1="30.914" y1="28.893" x2="35.649" y2="42.809" gradientUnits="userSpaceOnUse"><stop offset=".375" stop-color="#ABABAB" stop-opacity="0"/><stop offset=".928" stop-color="#70757A"/></linearGradient></defs></svg>