<svg width="48" height="48" viewBox="0 0 48 48" fill="none" xmlns="http://www.w3.org/2000/svg"><path d="M31.544 24.52a3.936 3.936 0 0 1 5.11.056 3.936 3.936 0 0 0 2.32.96 3.937 3.937 0 0 1 3.66 3.661c.058.858.395 1.673.96 2.32a3.936 3.936 0 0 1 0 5.176 3.935 3.935 0 0 0-.96 2.32 3.937 3.937 0 0 1-3.66 3.66 3.936 3.936 0 0 0-2.32.962 3.936 3.936 0 0 1-5.177 0 3.936 3.936 0 0 0-2.32-.961 3.937 3.937 0 0 1-3.66-3.66 3.935 3.935 0 0 0-.961-2.32 3.923 3.923 0 0 1-.894-1.812 16.498 16.498 0 0 0 3.508-2.636 16.155 16.155 0 0 0 4.394-7.727z" fill="url(#a)"/><path d="M31.893 22.558a5.437 5.437 0 0 1 5.746.887c.401.35.906.56 1.437.596a5.435 5.435 0 0 1 5.054 5.054c.036.53.246 1.035.595 1.436a5.436 5.436 0 0 1 0 7.149c-.35.4-.56.905-.595 1.436a5.435 5.435 0 0 1-5.054 5.054 2.437 2.437 0 0 0-1.437.596 5.436 5.436 0 0 1-7.148 0c-.4-.35-.905-.56-1.436-.596A5.435 5.435 0 0 1 24 39.116a2.438 2.438 0 0 0-.596-1.436 5.417 5.417 0 0 1-1.139-2.11 16.436 16.436 0 0 0 2.804-1.589 2.43 2.43 0 0 0 .596 1.726 5.436 5.436 0 0 1 1.328 3.205 2.436 2.436 0 0 0 2.265 2.265c1.184.08 2.31.547 3.205 1.328.917.8 2.285.8 3.203 0a5.435 5.435 0 0 1 3.205-1.328 2.435 2.435 0 0 0 2.265-2.265 5.437 5.437 0 0 1 1.328-3.205c.8-.918.8-2.286 0-3.203a5.436 5.436 0 0 1-1.328-3.205 2.435 2.435 0 0 0-2.265-2.265 5.436 5.436 0 0 1-3.205-1.328c-.918-.8-2.286-.8-3.203 0a5.437 5.437 0 0 1-1.608.97c.53-1.33.876-2.716 1.037-4.118z" fill="#DA4F00"/><path d="M15.636 2.056a.195.195 0 0 0-.274 0l-9.409 9.261a13.14 13.14 0 0 0 .001 18.791c5.272 5.19 13.82 5.19 19.092 0a13.14 13.14 0 0 0-.084-18.873l-9.326-9.179z" fill="url(#b)"/><defs><radialGradient id="a" cx="0" cy="0" r="1" gradientTransform="matrix(11.1122 14.0966 -10.1113 9.75214 28.405 29.349)" gradientUnits="userSpaceOnUse"><stop offset=".284" stop-color="#FCC934"/><stop offset=".99" stop-color="#E47100"/></radialGradient><linearGradient id="b" x1="6.131" y1="8.191" x2="17.681" y2="22.107" gradientUnits="userSpaceOnUse"><stop stop-color="#3271EA"/><stop offset="1" stop-color="#0B57D0"/></linearGradient></defs></svg>