<svg width="48" height="48" viewBox="0 0 48 48" fill="none" xmlns="http://www.w3.org/2000/svg"><path fill-rule="evenodd" clip-rule="evenodd" d="M38.53 10.53l-28 28-1.061-1.06 28-28 1.06 1.06z" fill="#70757A"/><path d="M6.928 10.834L14 4l7.01 6.775.062.06a9.593 9.593 0 0 1 2.335 3.545c.442 1.182-.029 2.465-.921 3.357l-8.199 8.198c-.85.85-2.053 1.318-3.207.979a10.029 10.029 0 0 1-4.15-2.411c-3.905-3.775-3.906-9.895 0-13.669z" fill="url(#a)"/><path d="M34.709 41.231a4.685 4.685 0 0 1-6.162 0 4.687 4.687 0 0 0-2.763-1.144 4.685 4.685 0 0 1-4.357-4.357 4.685 4.685 0 0 0-.217-1.129l15.04-15.165c.392.137.802.222 1.221.25a4.685 4.685 0 0 1 4.357 4.357 4.686 4.686 0 0 0 1.144 2.762 4.685 4.685 0 0 1 0 6.162 4.687 4.687 0 0 0-1.144 2.763 4.685 4.685 0 0 1-4.357 4.357 4.685 4.685 0 0 0-2.762 1.144z" fill="url(#b)"/><path d="M35.696 42.36a6.187 6.187 0 0 1-8.135 0 3.186 3.186 0 0 0-1.878-.777 6.185 6.185 0 0 1-5.695-5.242.919.919 0 0 1 .27-.78l2.104-2.12c.318.684.51 1.425.562 2.187a3.186 3.186 0 0 0 2.962 2.962 6.187 6.187 0 0 1 3.648 1.51 3.186 3.186 0 0 0 4.189 0 6.187 6.187 0 0 1 3.647-1.51 3.186 3.186 0 0 0 2.962-2.962 6.186 6.186 0 0 1 1.511-3.647 3.187 3.187 0 0 0 0-4.19 6.185 6.185 0 0 1-1.51-3.647 3.186 3.186 0 0 0-2.963-2.962 6.188 6.188 0 0 1-2.26-.597l2.166-2.183a.653.653 0 0 1 .53-.193 6.187 6.187 0 0 1 5.52 5.732c.047.694.32 1.353.777 1.878a6.187 6.187 0 0 1 0 8.134 3.185 3.185 0 0 0-.778 1.878 6.186 6.186 0 0 1-5.752 5.752 3.186 3.186 0 0 0-1.877.778z" fill="#DA4F00"/><defs><linearGradient id="a" x1="6.995" y1="8.455" x2="15.294" y2="18.529" gradientUnits="userSpaceOnUse"><stop stop-color="#3271EA"/><stop offset="1" stop-color="#0B57D0"/></linearGradient><radialGradient id="b" cx="0" cy="0" r="1" gradientTransform="matrix(-12.1719 -15.4059 11.0756 -10.658 38.911 36.11)" gradientUnits="userSpaceOnUse"><stop offset=".284" stop-color="#FCC934"/><stop offset=".99" stop-color="#E47100"/></radialGradient></defs></svg>