<svg width="48" height="48" viewBox="0 0 48 48" fill="none" xmlns="http://www.w3.org/2000/svg"><path fill-rule="evenodd" clip-rule="evenodd" d="M37.396 24.105a.36.36 0 0 1 .51 0l1.172 1.174a.36.36 0 0 1 0 .51l-2.587 2.586a.361.361 0 0 0-.105.255v1.75c0 .163.109.303.262.356.56.194 1.07.495 1.506.878a.38.38 0 0 0 .44.05l1.525-.88a.36.36 0 0 0 .168-.219l.947-3.532a.361.361 0 0 1 .442-.255l1.603.429c.192.052.306.25.254.442l-.711 2.655a.36.36 0 0 0 .255.441l2.656.712a.36.36 0 0 1 .255.441l-.43 1.603a.36.36 0 0 1-.441.255l-3.534-.947a.361.361 0 0 0-.273.037l-1.532.884a.381.381 0 0 0-.178.405 4.522 4.522 0 0 1-.002 1.73.382.382 0 0 0 .178.404l1.534.886c.083.048.181.06.273.036l3.534-.947a.36.36 0 0 1 .44.255l.43 1.602a.36.36 0 0 1-.254.442l-2.656.712a.36.36 0 0 0-.254.441l.71 2.656a.36.36 0 0 1-.254.44l-1.603.43a.36.36 0 0 1-.441-.255l-.948-3.532a.362.362 0 0 0-.168-.22l-1.532-.884a.381.381 0 0 0-.44.05c-.434.381-.942.68-1.5.872a.381.381 0 0 0-.261.355v1.762c0 .096.038.187.105.255l2.587 2.586c.141.14.141.37 0 .51l-1.172 1.173a.36.36 0 0 1-.51 0l-1.944-1.944a.361.361 0 0 0-.51 0l-1.945 1.944c-.14.141-.37.141-.51 0l-1.173-1.172a.361.361 0 0 1 0-.511l2.587-2.586a.361.361 0 0 0 .105-.255v-1.75a.381.381 0 0 0-.264-.356 4.501 4.501 0 0 1-1.52-.872.382.382 0 0 0-.439-.048l-1.51.872a.362.362 0 0 0-.168.22l-.947 3.532a.361.361 0 0 1-.44.255l-1.604-.43a.36.36 0 0 1-.255-.441l.712-2.656a.36.36 0 0 0-.255-.441l-2.656-.712a.36.36 0 0 1-.255-.441l.43-1.602a.361.361 0 0 1 .44-.256l3.534.947a.36.36 0 0 0 .273-.036l1.502-.867a.382.382 0 0 0 .177-.407 4.529 4.529 0 0 1-.002-1.764.381.381 0 0 0-.177-.406l-1.499-.865a.362.362 0 0 0-.274-.036l-3.483.932c.608-.452 1.193-.95 1.747-1.496a16.34 16.34 0 0 0 2.594-3.308l.437 1.626a.36.36 0 0 0 .168.22l1.505.868c.14.081.317.057.44-.05a4.497 4.497 0 0 1 1.525-.877.381.381 0 0 0 .264-.356v-1.74a.361.361 0 0 0-.105-.254l-2.587-2.586a.36.36 0 0 1 0-.51l1.173-1.174c.14-.14.368-.14.51 0l1.944 1.945c.14.14.37.14.51 0l1.945-1.945zm-2.218 8.766a2.124 2.124 0 1 0 0 4.248 2.124 2.124 0 0 0 0-4.248z" fill="#303134"/><path d="M15.636 2.056a.195.195 0 0 0-.274 0l-9.409 9.261a13.14 13.14 0 0 0 .001 18.791c5.272 5.19 13.82 5.19 19.092 0a13.14 13.14 0 0 0-.084-18.873l-9.326-9.179z" fill="url(#a)"/><defs><linearGradient id="a" x1="6.131" y1="8.191" x2="17.681" y2="22.107" gradientUnits="userSpaceOnUse"><stop stop-color="#3271EA"/><stop offset="1" stop-color="#0B57D0"/></linearGradient></defs></svg>