<svg width="48" height="48" viewBox="0 0 48 48" fill="none" xmlns="http://www.w3.org/2000/svg"><path d="M33.033 26.76c5.087.122 9.26 4.055 9.26 8.997l-.004.284a8.633 8.633 0 0 1-.032.5c1.276.811 2.114 2.173 2.114 3.717 0 2.486-2.17 4.5-4.847 4.5h-14.54v-.001h-2.338c-3.513 0-6.472-2.611-6.653-5.996l-.01-.33c.001-3.544 3.037-6.326 6.663-6.326.477 0 .943.048 1.393.14 1.453-3.246 4.846-5.488 8.751-5.488l.243.003z" fill="url(#a)" fill-opacity=".35"/><path d="M33.05 25.26h.018c5.813.14 10.725 4.655 10.725 10.497v.026l-.001.038c1.257 1.082 2.078 2.654 2.078 4.437 0 3.417-2.948 6-6.347 6H23.484v-.002h-.839c-4.23 0-7.922-3.157-8.15-7.415l-.002-.02v-.02l-.009-.33v-.04c0-.5.049-.986.14-1.456 1.05.055 2.105.012 3.149-.13a4.525 4.525 0 0 0-.29 1.586l.007.25.019.234c.255 2.404 2.43 4.341 5.137 4.341h3.838v.002h13.04c1.954 0 3.346-1.445 3.346-3 0-.977-.528-1.885-1.418-2.45l-.772-.491.083-.911c.013-.142.022-.28.026-.414l.004-.235c0-4.036-3.426-7.384-7.777-7.498l-.233-.002c-1.043.001-2.039.189-2.951.53a16.074 16.074 0 0 0 1.486-3.436c.483-.062.974-.094 1.472-.094h.017l.243.003z" fill="#70757A"/><path d="M15.636 2.056a.195.195 0 0 0-.274 0l-9.409 9.261a13.14 13.14 0 0 0 .001 18.791c5.272 5.19 13.82 5.19 19.092 0a13.14 13.14 0 0 0-.084-18.873l-9.326-9.179z" fill="url(#b)"/><defs><linearGradient id="a" x1="27.97" y1="29.292" x2="32.685" y2="44.246" gradientUnits="userSpaceOnUse"><stop offset=".375" stop-color="#ABABAB" stop-opacity="0"/><stop offset=".928" stop-color="#70757A"/></linearGradient><linearGradient id="b" x1="6.131" y1="8.191" x2="17.681" y2="22.107" gradientUnits="userSpaceOnUse"><stop stop-color="#3271EA"/><stop offset="1" stop-color="#0B57D0"/></linearGradient></defs></svg>