<svg width="48" height="48" viewBox="0 0 48 48" fill="none" xmlns="http://www.w3.org/2000/svg"><g clip-path="url(#a)"><path d="M6.928 10.834L14 4l7.01 6.775.062.06a9.593 9.593 0 0 1 2.335 3.545c.442 1.182-.029 2.465-.921 3.357l-8.199 8.198c-.85.85-2.053 1.318-3.207.979a10.029 10.029 0 0 1-4.15-2.411c-3.905-3.775-3.906-9.895 0-13.669z" fill="url(#b)"/><path fill-rule="evenodd" clip-rule="evenodd" d="M38.53 10.53l-28 28-1.061-1.06 28-28 1.06 1.06z" fill="#70757A"/><path fill-rule="evenodd" clip-rule="evenodd" d="M40.27 39.488a.3.3 0 0 1 .14.182l.958 3.576a.3.3 0 0 0 .367.212l1.932-.518a.3.3 0 0 0 .212-.367l-.715-2.67a.3.3 0 0 1 .212-.368l2.67-.715a.3.3 0 0 0 .212-.367l-.518-1.932a.3.3 0 0 0-.367-.212l-3.575.958a.3.3 0 0 1-.228-.03l-1.49-.86a.313.313 0 0 1-.147-.332 4.641 4.641 0 0 0 .001-1.723.313.313 0 0 1 .148-.33l1.488-.86a.3.3 0 0 1 .228-.03l3.575.959a.3.3 0 0 0 .367-.213l.518-1.931a.3.3 0 0 0-.212-.368l-2.67-.715a.3.3 0 0 1-.212-.368l.715-2.67a.3.3 0 0 0-.212-.367l-1.932-.518a.3.3 0 0 0-.367.212L40.41 30.7a.3.3 0 0 1-.14.182l-1.48.855a.313.313 0 0 1-.362-.04 4.61 4.61 0 0 0-1.5-.873.313.313 0 0 1-.212-.293V28.83a.3.3 0 0 1 .088-.212l2.617-2.618a.3.3 0 0 0 0-.424l-1.414-1.414a.3.3 0 0 0-.425 0l-1.954 1.954a.3.3 0 0 1-.424 0l-1.955-1.954a.3.3 0 0 0-.424 0l-1.414 1.414a.3.3 0 0 0 0 .424l2.617 2.618a.3.3 0 0 1 .088.212v1.689c0 .133-.089.25-.215.293a4.61 4.61 0 0 0-1.52.874.313.313 0 0 1-.36.038l-1.46-.842a.3.3 0 0 1-.14-.182l-.957-3.576a.3.3 0 0 0-.368-.212l-1.932.518a.3.3 0 0 0-.212.368l.716 2.67a.3.3 0 0 1-.212.367l-2.67.715a.3.3 0 0 0-.212.367l.517 1.932a.3.3 0 0 0 .368.212l3.575-.957a.3.3 0 0 1 .227.03l1.456.84a.313.313 0 0 1 .147.332 4.643 4.643 0 0 0 .002 1.758.313.313 0 0 1-.147.332l-1.457.842a.3.3 0 0 1-.228.03l-3.575-.958a.3.3 0 0 0-.368.212l-.517 1.932a.3.3 0 0 0 .212.367l2.67.715a.3.3 0 0 1 .212.368l-.716 2.67a.3.3 0 0 0 .212.367l1.932.518a.3.3 0 0 0 .368-.212l.958-3.576a.3.3 0 0 1 .14-.182l1.466-.847a.313.313 0 0 1 .36.038c.44.379.952.676 1.513.868.126.043.215.16.215.294v1.7a.3.3 0 0 1-.088.212L31.41 44.37a.3.3 0 0 0 0 .424l1.414 1.414a.3.3 0 0 0 .424 0l1.955-1.954a.3.3 0 0 1 .424 0l1.954 1.954a.3.3 0 0 0 .425 0l1.414-1.414a.3.3 0 0 0 0-.424l-2.617-2.617a.3.3 0 0 1-.088-.213v-1.712c0-.133.087-.249.213-.293a4.614 4.614 0 0 0 1.491-.867.313.313 0 0 1 .361-.04l1.49.86zm-4.872-6.325a2.016 2.016 0 1 0 0 4.032 2.016 2.016 0 0 0 0-4.032z" fill="#303134"/></g><defs><linearGradient id="b" x1="7.045" y1="8.504" x2="15.426" y2="18.736" gradientUnits="userSpaceOnUse"><stop stop-color="#3271EA"/><stop offset="1" stop-color="#0B57D0"/></linearGradient><clipPath id="a"><path fill="#fff" d="M0 0h48v48H0z"/></clipPath></defs></svg>