<svg width="48" height="48" viewBox="0 0 48 48" fill="none" xmlns="http://www.w3.org/2000/svg"><path d="M32.928 26.51c5.086.12 9.26 4.054 9.26 8.996l-.005.284a8.622 8.622 0 0 1-.032.5c1.277.811 2.114 2.173 2.114 3.717 0 2.486-2.17 4.5-4.846 4.5h-14.54v-.001h-2.338c-3.514 0-6.472-2.611-6.654-5.996l-.009-.33c0-3.544 3.036-6.326 6.663-6.326.477 0 .943.048 1.393.14 1.452-3.246 4.846-5.488 8.751-5.488l.243.003z" fill="url(#a)" fill-opacity=".35"/><path d="M34.966 25.238c4.894.992 8.721 5.112 8.721 10.268v.064c1.257 1.082 2.078 2.654 2.078 4.437 0 3.417-2.949 6-6.347 6h-16.04v-.002h-.838c-4.23 0-7.923-3.157-8.151-7.415l-.001-.02v-.02l-.01-.33v-.04c0-.493.048-.972.137-1.435a19.691 19.691 0 0 0 3.047.163c-.119.407-.184.833-.184 1.272l.007.25.018.234c.256 2.404 2.43 4.341 5.138 4.341h3.838v.002h13.039c1.955 0 3.347-1.445 3.347-3 0-.977-.529-1.885-1.418-2.45l-.773-.491.083-.911c.013-.142.022-.28.027-.414l.004-.235c0-3.868-3.147-7.102-7.239-7.465a19.459 19.459 0 0 0 1.517-2.803z" fill="#70757A"/><path fill-rule="evenodd" clip-rule="evenodd" d="M26.074 28.8a.5.5 0 0 1-.612-.355L24.15 23.55a.5.5 0 0 0-.233-.304l-2.126-1.227a.528.528 0 0 0-.61.07 6.237 6.237 0 0 1-2.078 1.208.528.528 0 0 0-.362.493v2.443a.5.5 0 0 0 .146.353l3.586 3.585a.5.5 0 0 1 0 .707l-1.626 1.627a.5.5 0 0 1-.707 0l-2.696-2.695a.5.5 0 0 0-.707 0l-2.696 2.695a.5.5 0 0 1-.707 0l-1.626-1.626a.5.5 0 0 1 0-.708l3.586-3.585a.5.5 0 0 0 .147-.353v-2.426a.528.528 0 0 0-.367-.495 6.238 6.238 0 0 1-2.106-1.207.527.527 0 0 0-.608-.068l-2.095 1.21a.5.5 0 0 0-.233.303L8.72 28.446a.5.5 0 0 1-.613.353l-2.222-.595a.5.5 0 0 1-.353-.612l.986-3.68a.5.5 0 0 0-.353-.613l-3.682-.987a.5.5 0 0 1-.353-.612l.595-2.221a.5.5 0 0 1 .612-.354l4.898 1.313a.5.5 0 0 0 .38-.05l2.082-1.203a.528.528 0 0 0 .245-.563 6.269 6.269 0 0 1-.002-2.446.528.528 0 0 0-.246-.563l-2.08-1.2a.5.5 0 0 0-.378-.05l-4.899 1.312a.5.5 0 0 1-.612-.353L2.129 13.1a.5.5 0 0 1 .354-.612l3.68-.986a.5.5 0 0 0 .354-.613l-.986-3.68a.5.5 0 0 1 .354-.613L8.106 6a.5.5 0 0 1 .613.353l1.312 4.897a.5.5 0 0 0 .233.303l2.085 1.204c.195.113.44.08.61-.069a6.24 6.24 0 0 1 2.115-1.216.528.528 0 0 0 .367-.494v-2.41a.5.5 0 0 0-.147-.354L11.708 4.63a.5.5 0 0 1 0-.708l1.626-1.626a.5.5 0 0 1 .707 0l2.696 2.695a.5.5 0 0 0 .707 0l2.696-2.695a.5.5 0 0 1 .707 0l1.626 1.627a.5.5 0 0 1 0 .707l-3.586 3.585a.5.5 0 0 0-.146.353v2.428c0 .224.15.42.362.493a6.239 6.239 0 0 1 2.088 1.216c.17.15.415.183.61.07l2.115-1.22a.5.5 0 0 0 .233-.304l1.313-4.897a.5.5 0 0 1 .612-.353l2.222.595a.5.5 0 0 1 .353.612l-.986 3.68a.5.5 0 0 0 .354.613l3.681.987a.5.5 0 0 1 .354.612l-.596 2.221a.5.5 0 0 1-.612.354l-4.898-1.312a.5.5 0 0 0-.38.05l-2.124 1.226a.528.528 0 0 0-.246.56 6.273 6.273 0 0 1-.002 2.399c-.043.22.05.449.245.561l2.128 1.228a.5.5 0 0 0 .38.05l4.897-1.312a.5.5 0 0 1 .613.353l.595 2.222a.5.5 0 0 1-.354.612l-3.681.986a.5.5 0 0 0-.354.613l.987 3.68a.5.5 0 0 1-.354.613l-2.222.595zM14.121 17.391a2.944 2.944 0 1 1 5.888.001 2.944 2.944 0 0 1-5.888 0z" fill="#303134"/><defs><linearGradient id="a" x1="27.864" y1="29.041" x2="32.58" y2="43.995" gradientUnits="userSpaceOnUse"><stop offset=".375" stop-color="#ABABAB" stop-opacity="0"/><stop offset=".928" stop-color="#70757A"/></linearGradient></defs></svg>