<svg width="48" height="48" viewBox="0 0 48 48" fill="none" xmlns="http://www.w3.org/2000/svg"><g clip-path="url(#a)"><path d="M36.624 24.039a.134.134 0 0 1 .189 0l6.412 6.31.057.057a9.034 9.034 0 0 1 0 12.92c-3.624 3.567-9.501 3.567-13.126 0a9.033 9.033 0 0 1-2.567-8.1 19.564 19.564 0 0 0 8.694-10.852l.341-.335z" fill="url(#b)"/><path fill-rule="evenodd" clip-rule="evenodd" d="M23.917 23.246a.5.5 0 0 1 .233.303l1.312 4.897a.5.5 0 0 0 .612.353l2.222-.595a.5.5 0 0 0 .354-.612l-.987-3.68a.5.5 0 0 1 .354-.613l3.681-.987a.5.5 0 0 0 .354-.612l-.595-2.221a.5.5 0 0 0-.613-.354l-4.898 1.313a.5.5 0 0 1-.38-.05L23.44 19.16a.528.528 0 0 1-.245-.562 6.276 6.276 0 0 0 .002-2.398.528.528 0 0 1 .246-.56l2.125-1.228a.5.5 0 0 1 .38-.05l4.897 1.313a.5.5 0 0 0 .612-.354l.596-2.221a.5.5 0 0 0-.354-.612l-3.681-.987a.5.5 0 0 1-.354-.612l.986-3.68a.5.5 0 0 0-.353-.613l-2.222-.595a.5.5 0 0 0-.613.353l-1.312 4.897a.5.5 0 0 1-.233.304l-2.114 1.22a.528.528 0 0 1-.611-.07 6.238 6.238 0 0 0-2.088-1.216.528.528 0 0 1-.363-.493V8.57a.5.5 0 0 1 .147-.354l3.586-3.585a.5.5 0 0 0 0-.707l-1.626-1.627a.5.5 0 0 0-.707 0l-2.696 2.695a.5.5 0 0 1-.707 0l-2.696-2.695a.5.5 0 0 0-.707 0l-1.626 1.627a.5.5 0 0 0 0 .707l3.586 3.585a.5.5 0 0 1 .146.353v2.411a.528.528 0 0 1-.367.495 6.237 6.237 0 0 0-2.114 1.216.528.528 0 0 1-.61.068l-2.085-1.204a.5.5 0 0 1-.233-.303L8.719 6.354a.5.5 0 0 0-.613-.353l-2.221.595a.5.5 0 0 0-.354.612l.986 3.681a.5.5 0 0 1-.353.613l-3.68.986a.5.5 0 0 0-.355.612l.596 2.222a.5.5 0 0 0 .612.354l4.899-1.313a.5.5 0 0 1 .379.05l2.08 1.2a.528.528 0 0 1 .245.563 6.277 6.277 0 0 0 .002 2.446.528.528 0 0 1-.245.563l-2.083 1.203a.5.5 0 0 1-.379.05l-4.898-1.313a.5.5 0 0 0-.612.354L2.13 21.7a.5.5 0 0 0 .353.612l3.682.987a.5.5 0 0 1 .353.612l-.986 3.68a.5.5 0 0 0 .353.613l2.222.595a.5.5 0 0 0 .613-.353l1.312-4.897a.5.5 0 0 1 .233-.304l2.095-1.209a.527.527 0 0 1 .608.068c.61.53 1.323.945 2.106 1.208a.528.528 0 0 1 .367.494v2.426a.5.5 0 0 1-.147.353l-3.586 3.585a.5.5 0 0 0 0 .707l1.626 1.627a.5.5 0 0 0 .707 0l2.696-2.695a.5.5 0 0 1 .707 0l2.696 2.695a.5.5 0 0 0 .707 0l1.626-1.627a.5.5 0 0 0 0-.707l-3.586-3.585a.5.5 0 0 1-.146-.354V23.79c0-.225.15-.42.362-.493a6.239 6.239 0 0 0 2.078-1.208.528.528 0 0 1 .61-.07l2.126 1.228zm-6.851-8.797a2.944 2.944 0 1 0-.001 5.888 2.944 2.944 0 0 0 0-5.888z" fill="#303134"/></g><defs><linearGradient id="b" x1="30.279" y1="28.257" x2="38.219" y2="37.824" gradientUnits="userSpaceOnUse"><stop stop-color="#3271EA"/><stop offset="1" stop-color="#0B57D0"/></linearGradient><clipPath id="a"><path fill="#fff" d="M0 0h48v48H0z"/></clipPath></defs></svg>