<svg width="48" height="48" viewBox="0 0 48 48" fill="none" xmlns="http://www.w3.org/2000/svg"><g clip-path="url(#a)"><path fill-rule="evenodd" clip-rule="evenodd" d="M23.924 23.252a.5.5 0 0 1 .233.304l1.312 4.897a.5.5 0 0 0 .613.353l2.222-.595a.5.5 0 0 0 .353-.613l-.986-3.68a.5.5 0 0 1 .354-.613l3.68-.986a.5.5 0 0 0 .355-.612l-.596-2.222a.5.5 0 0 0-.612-.353l-4.898 1.312a.5.5 0 0 1-.38-.05l-2.127-1.228a.528.528 0 0 1-.245-.561 6.273 6.273 0 0 0 .002-2.398.528.528 0 0 1 .245-.56l2.126-1.228a.5.5 0 0 1 .379-.05l4.898 1.313a.5.5 0 0 0 .612-.354l.595-2.221a.5.5 0 0 0-.353-.612l-3.682-.987a.5.5 0 0 1-.353-.612l.986-3.68a.5.5 0 0 0-.354-.613l-2.221-.595a.5.5 0 0 0-.613.353l-1.312 4.897a.5.5 0 0 1-.233.304l-2.114 1.22a.528.528 0 0 1-.611-.07 6.24 6.24 0 0 0-2.088-1.216.528.528 0 0 1-.363-.493V8.575a.5.5 0 0 1 .147-.353l3.586-3.585a.5.5 0 0 0 0-.707l-1.626-1.627a.5.5 0 0 0-.708 0l-2.695 2.695a.5.5 0 0 1-.707 0l-2.696-2.695a.5.5 0 0 0-.707 0L11.716 3.93a.5.5 0 0 0 0 .707l3.586 3.585a.5.5 0 0 1 .146.353v2.41a.528.528 0 0 1-.367.495 6.237 6.237 0 0 0-2.115 1.216.528.528 0 0 1-.61.069l-2.085-1.204a.5.5 0 0 1-.233-.303L8.726 6.36a.5.5 0 0 0-.612-.353l-2.222.595a.5.5 0 0 0-.353.612l.986 3.681a.5.5 0 0 1-.354.612l-3.68.987a.5.5 0 0 0-.354.612l.595 2.222a.5.5 0 0 0 .613.353l4.898-1.312a.5.5 0 0 1 .38.05l2.08 1.2a.528.528 0 0 1 .244.563 6.277 6.277 0 0 0 .003 2.446.528.528 0 0 1-.245.563l-2.083 1.203a.5.5 0 0 1-.38.05l-4.897-1.313a.5.5 0 0 0-.613.354l-.595 2.221a.5.5 0 0 0 .354.612l3.681.987a.5.5 0 0 1 .354.612l-.987 3.68a.5.5 0 0 0 .354.613l2.222.595a.5.5 0 0 0 .612-.353l1.313-4.897a.5.5 0 0 1 .233-.304l2.094-1.21a.528.528 0 0 1 .609.069c.61.53 1.323.944 2.105 1.207a.528.528 0 0 1 .367.495v2.426a.5.5 0 0 1-.146.353l-3.586 3.585a.5.5 0 0 0 0 .707l1.626 1.627a.5.5 0 0 0 .707 0l2.696-2.695a.5.5 0 0 1 .707 0l2.695 2.695a.5.5 0 0 0 .708 0l1.626-1.627a.5.5 0 0 0 0-.707l-3.586-3.585a.5.5 0 0 1-.147-.353v-2.443c0-.225.15-.42.363-.493a6.24 6.24 0 0 0 2.078-1.208.528.528 0 0 1 .61-.07l2.125 1.227zm-6.85-8.796a2.944 2.944 0 1 0-.002 5.888 2.944 2.944 0 0 0 .001-5.888z" fill="#303134"/><path d="M35.934 23.763c.195-.568.832-.879 1.327-.538.168.116.331.243.49.38.4.35.905.56 1.436.596a5.435 5.435 0 0 1 5.053 5.054c.036.53.246 1.036.596 1.436a5.436 5.436 0 0 1 0 7.149c-.35.4-.56.905-.596 1.436a5.435 5.435 0 0 1-5.053 5.054 2.437 2.437 0 0 0-1.437.596 5.436 5.436 0 0 1-7.148 0c-.401-.35-.906-.56-1.437-.596a5.435 5.435 0 0 1-5.054-5.054 2.438 2.438 0 0 0-.595-1.436 5.431 5.431 0 0 1-.455-.6c-.326-.5-.006-1.125.56-1.313a19.563 19.563 0 0 0 12.313-12.164z" fill="url(#b)"/><path d="M35.934 23.763c.195-.568.832-.879 1.327-.538.168.116.331.243.489.38.4.35.906.56 1.437.596a5.435 5.435 0 0 1 5.053 5.054c.036.53.246 1.036.596 1.436a5.436 5.436 0 0 1 0 7.149c-.35.4-.56.906-.596 1.436a5.435 5.435 0 0 1-5.053 5.054 2.438 2.438 0 0 0-1.437.596 5.436 5.436 0 0 1-7.148 0c-.401-.35-.906-.56-1.437-.596a5.435 5.435 0 0 1-5.054-5.054 2.438 2.438 0 0 0-.595-1.436 5.444 5.444 0 0 1-.455-.6c-.326-.5-.007-1.125.56-1.313.6-.199 1.189-.426 1.763-.68.097.22.226.43.392.62a5.436 5.436 0 0 1 1.329 3.205 2.435 2.435 0 0 0 2.264 2.265c1.185.08 2.31.547 3.205 1.328.918.8 2.286.8 3.203 0a5.438 5.438 0 0 1 3.205-1.328 2.436 2.436 0 0 0 2.265-2.265 5.437 5.437 0 0 1 1.328-3.205c.8-.917.8-2.286 0-3.203a5.435 5.435 0 0 1-1.328-3.205 2.436 2.436 0 0 0-2.265-2.265 5.435 5.435 0 0 1-3.205-1.328 2.437 2.437 0 0 0-.542-.357c.26-.568.493-1.15.699-1.746z" fill="#DA4F00"/></g><defs><radialGradient id="b" cx="0" cy="0" r="1" gradientTransform="matrix(12.5482 15.8297 -11.418 10.9512 27.928 29.134)" gradientUnits="userSpaceOnUse"><stop offset=".284" stop-color="#FCC934"/><stop offset=".99" stop-color="#E47100"/></radialGradient><clipPath id="a"><path fill="#fff" d="M0 0h48v48H0z"/></clipPath></defs></svg>