<svg width="48" height="48" viewBox="0 0 48 48" fill="none" xmlns="http://www.w3.org/2000/svg"><g clip-path="url(#a)"><path fill-rule="evenodd" clip-rule="evenodd" d="M17.436 17.173a.3.3 0 0 1 .14.182l.958 3.575a.3.3 0 0 0 .367.212l1.932-.517a.3.3 0 0 0 .212-.368l-.715-2.67a.3.3 0 0 1 .212-.367l2.67-.715a.3.3 0 0 0 .212-.368l-.518-1.932a.3.3 0 0 0-.367-.212l-3.575.958a.3.3 0 0 1-.228-.03l-1.49-.86a.313.313 0 0 1-.147-.332 4.642 4.642 0 0 0 .001-1.722.313.313 0 0 1 .148-.33l1.488-.86a.3.3 0 0 1 .228-.03l3.575.958a.3.3 0 0 0 .367-.212l.518-1.932a.3.3 0 0 0-.212-.367l-2.67-.716a.3.3 0 0 1-.212-.367l.715-2.67a.3.3 0 0 0-.212-.367l-1.932-.518a.3.3 0 0 0-.367.212l-.958 3.575a.3.3 0 0 1-.14.182l-1.48.855a.313.313 0 0 1-.362-.039 4.611 4.611 0 0 0-1.5-.874.313.313 0 0 1-.212-.292V6.513a.3.3 0 0 1 .088-.212l2.617-2.617a.3.3 0 0 0 0-.424l-1.414-1.414a.3.3 0 0 0-.425 0L12.794 3.8a.3.3 0 0 1-.424 0l-1.955-1.954a.3.3 0 0 0-.424 0L8.577 3.26a.3.3 0 0 0 0 .424l2.617 2.617a.3.3 0 0 1 .088.212v1.69c0 .133-.089.25-.215.293a4.61 4.61 0 0 0-1.52.873.313.313 0 0 1-.36.039l-1.46-.843a.3.3 0 0 1-.14-.182L6.63 4.808a.3.3 0 0 0-.368-.212l-1.932.518a.3.3 0 0 0-.212.367l.716 2.67a.3.3 0 0 1-.212.367l-2.67.716a.3.3 0 0 0-.212.367l.517 1.932a.3.3 0 0 0 .368.212l3.575-.958a.3.3 0 0 1 .227.03l1.456.84a.313.313 0 0 1 .147.332 4.64 4.64 0 0 0 .002 1.758.313.313 0 0 1-.147.332l-1.458.842a.3.3 0 0 1-.227.03l-3.575-.958a.3.3 0 0 0-.368.212l-.517 1.932a.3.3 0 0 0 .212.368l2.67.715a.3.3 0 0 1 .212.367l-.716 2.67a.3.3 0 0 0 .212.368l1.932.517a.3.3 0 0 0 .368-.212l.958-3.575a.3.3 0 0 1 .14-.182l1.466-.847a.313.313 0 0 1 .36.038c.44.378.952.675 1.512.867.127.044.216.16.216.294v1.7a.3.3 0 0 1-.088.212l-2.617 2.617a.3.3 0 0 0 0 .425l1.414 1.414a.3.3 0 0 0 .424 0l1.955-1.954a.3.3 0 0 1 .424 0l1.954 1.954a.3.3 0 0 0 .425 0l1.414-1.414a.3.3 0 0 0 0-.425l-2.617-2.617a.3.3 0 0 1-.088-.212v-1.713c0-.132.087-.248.213-.292a4.61 4.61 0 0 0 1.491-.868.313.313 0 0 1 .361-.039l1.49.86zm-4.872-6.325a2.016 2.016 0 1 0 0 4.032 2.016 2.016 0 0 0 0-4.033z" fill="#303134"/><path fill-rule="evenodd" clip-rule="evenodd" d="M38.53 10.53l-28 28-1.061-1.06 28-28 1.06 1.06z" fill="#70757A"/><path d="M36.006 20.543a.14.14 0 0 0-.197 0l-6.762 6.655a9.445 9.445 0 0 0 0 13.507c3.79 3.73 9.933 3.73 13.722 0a9.444 9.444 0 0 0-.06-13.565l-6.703-6.598z" fill="url(#b)"/></g><defs><linearGradient id="b" x1="29.174" y1="24.952" x2="37.475" y2="34.954" gradientUnits="userSpaceOnUse"><stop stop-color="#3271EA"/><stop offset="1" stop-color="#0B57D0"/></linearGradient><clipPath id="a"><path fill="#fff" d="M0 0h48v48H0z"/></clipPath></defs></svg>