<svg width="48" height="48" viewBox="0 0 48 48" fill="none" xmlns="http://www.w3.org/2000/svg"><g clip-path="url(#a)"><path fill-rule="evenodd" clip-rule="evenodd" d="M17.805 17.146a.3.3 0 0 1 .14.183l.958 3.575a.3.3 0 0 0 .367.212l1.932-.518a.3.3 0 0 0 .212-.367l-.715-2.67a.3.3 0 0 1 .212-.367l2.67-.716a.3.3 0 0 0 .212-.367l-.517-1.932a.3.3 0 0 0-.368-.212l-3.575.958a.3.3 0 0 1-.228-.03l-1.49-.86a.313.313 0 0 1-.147-.332 4.641 4.641 0 0 0 .002-1.722.313.313 0 0 1 .147-.33l1.488-.86a.3.3 0 0 1 .228-.03l3.575.958a.3.3 0 0 0 .367-.212l.518-1.932a.3.3 0 0 0-.212-.368l-2.67-.715a.3.3 0 0 1-.212-.368l.715-2.67a.3.3 0 0 0-.212-.367L19.27 4.57a.3.3 0 0 0-.367.212l-.958 3.575a.3.3 0 0 1-.14.182l-1.48.855a.313.313 0 0 1-.362-.04 4.612 4.612 0 0 0-1.5-.873.313.313 0 0 1-.212-.293V6.487a.3.3 0 0 1 .088-.212l2.617-2.617a.3.3 0 0 0 0-.425L15.542 1.82a.3.3 0 0 0-.425 0l-1.954 1.955a.3.3 0 0 1-.424 0l-1.955-1.955a.3.3 0 0 0-.424 0L8.946 3.233a.3.3 0 0 0 0 .425l2.617 2.617a.3.3 0 0 1 .088.212v1.689c0 .133-.089.25-.215.293a4.61 4.61 0 0 0-1.52.874.313.313 0 0 1-.36.039l-1.46-.843a.3.3 0 0 1-.14-.182L7 4.782a.3.3 0 0 0-.368-.212L4.7 5.087a.3.3 0 0 0-.213.368l.716 2.67a.3.3 0 0 1-.212.367l-2.67.715a.3.3 0 0 0-.212.368l.517 1.932a.3.3 0 0 0 .368.212l3.575-.958a.3.3 0 0 1 .228.03l1.455.84a.313.313 0 0 1 .147.332 4.64 4.64 0 0 0 .002 1.758.313.313 0 0 1-.147.332l-1.457.842a.3.3 0 0 1-.228.03l-3.575-.958a.3.3 0 0 0-.368.212l-.517 1.932a.3.3 0 0 0 .212.367l2.67.716a.3.3 0 0 1 .212.367l-.716 2.67a.3.3 0 0 0 .213.367l1.931.518A.3.3 0 0 0 7 20.904l.958-3.575a.3.3 0 0 1 .14-.183l1.467-.846a.313.313 0 0 1 .36.038c.44.378.951.675 1.512.867.126.043.215.16.215.294v1.7a.3.3 0 0 1-.088.212l-2.617 2.617a.3.3 0 0 0 0 .424l1.414 1.414a.3.3 0 0 0 .424 0l1.955-1.954a.3.3 0 0 1 .424 0l1.954 1.954a.3.3 0 0 0 .425 0l1.414-1.414a.3.3 0 0 0 0-.424l-2.617-2.617a.3.3 0 0 1-.088-.212v-1.713c0-.133.088-.249.213-.293a4.612 4.612 0 0 0 1.492-.867.313.313 0 0 1 .36-.039l1.49.86zm-4.872-6.325a2.016 2.016 0 1 0 0 4.032 2.016 2.016 0 0 0 0-4.032z" fill="#303134"/><path fill-rule="evenodd" clip-rule="evenodd" d="M38.53 10.53l-28 28-1.061-1.06 28-28 1.06 1.06z" fill="#70757A"/><path d="M45.265 35.267c-.09 2.755-1.564 5.165-3.753 6.648a9.19 9.19 0 0 1-3.24 1.375c-1.966.242-3.91.208-5.892.208h-5.665c-3.318 0-6.112-2.465-6.284-5.662l-.008-.312c0-3.346 2.867-5.974 6.292-5.974.45 0 .89.046 1.315.131 1.372-3.064 4.577-5.18 8.265-5.181l.23.003c4.803.115 8.744 3.829 8.744 8.496l-.004.268z" fill="url(#b)" fill-opacity=".35" stroke="#70757A" stroke-width="3"/></g><defs><linearGradient id="b" x1="30.914" y1="28.893" x2="35.649" y2="42.809" gradientUnits="userSpaceOnUse"><stop offset=".375" stop-color="#ABABAB" stop-opacity="0"/><stop offset=".928" stop-color="#70757A"/></linearGradient><clipPath id="a"><path fill="#fff" d="M0 0h48v48H0z"/></clipPath></defs></svg>